<?xml version="1.0" encoding="UTF-8" standalone="no"?>
<!-- Created with Inkscape (http://www.inkscape.org/) -->

<svg
   width="1000"
   height="1000"
   viewBox="0 0 1000 1000"
   version="1.1"
   id="svg1"
   inkscape:version="1.3.2 (091e20ef0f, 2023-11-25)"
   sodipodi:docname="dev.edfloreshz.CosmicTweaks.svg"
   xmlns:inkscape="http://www.inkscape.org/namespaces/inkscape"
   xmlns:sodipodi="http://sodipodi.sourceforge.net/DTD/sodipodi-0.dtd"
   xmlns:xlink="http://www.w3.org/1999/xlink"
   xmlns="http://www.w3.org/2000/svg"
   xmlns:svg="http://www.w3.org/2000/svg">
  <sodipodi:namedview
     id="namedview1"
     pagecolor="#505050"
     bordercolor="#eeeeee"
     borderopacity="1"
     inkscape:showpageshadow="0"
     inkscape:pageopacity="0"
     inkscape:pagecheckerboard="0"
     inkscape:deskcolor="#505050"
     inkscape:document-units="px"
     inkscape:zoom="0.94280904"
     inkscape:cx="442.29529"
     inkscape:cy="490.025"
     inkscape:window-width="2560"
     inkscape:window-height="1412"
     inkscape:window-x="0"
     inkscape:window-y="0"
     inkscape:window-maximized="1"
     inkscape:current-layer="layer1" />
  <defs
     id="defs1">
    <linearGradient
       inkscape:collect="always"
       xlink:href="#linearGradient38"
       id="linearGradient39"
       x1="12.314495"
       y1="56.955929"
       x2="54.167397"
       y2="15.103029"
       gradientUnits="userSpaceOnUse"
       gradientTransform="matrix(18.712273,0,0,18.712273,-123.68042,-158.09759)" />
    <linearGradient
       id="linearGradient38"
       inkscape:collect="always">
      <stop
         style="stop-color:#b7baff;stop-opacity:1;"
         offset="0"
         id="stop39" />
      <stop
         style="stop-color:#eee1ff;stop-opacity:1;"
         offset="1"
         id="stop38" />
    </linearGradient>
  </defs>
  <g
     inkscape:label="Layer 1"
     inkscape:groupmode="layer"
     id="layer1">
    <rect
       style="fill:url(#linearGradient39);fill-opacity:1;stroke-width:4.86519;stroke-dasharray:none"
       id="rect45"
       width="842.05225"
       height="842.05225"
       x="78.843987"
       y="92.408424"
       rx="93.561363" />
    <g
       id="g4"
       transform="matrix(0.9,0,0,0.9,49.987011,51.343455)">
      <g
         id="g3"
         transform="translate(-27.978188,6.1288267)">
        <rect
           style="fill:#afafe9"
           id="rect1"
           width="678.53247"
           height="45.2355"
           x="188.58206"
           y="289.64725"
           rx="18.897638" />
        <path
           id="path1"
           style="fill:#1c1c24;stroke-width:0.755782"
           d="m 308.41405,244.04386 c -2.62614,0.041 -5.1294,0.21808 -7.75597,0.55403 -0.85727,0.10791 -1.86683,0.26256 -2.69325,0.39909 -1.29636,0.225 -2.38791,0.43198 -3.70848,0.73099 -13.79183,3.06908 -26.54264,10.576 -35.91843,21.14605 -9.79151,10.91917 -15.87479,25.08288 -17.05842,39.70122 -0.24456,2.88752 -0.2967,5.79012 -0.18185,8.68541 0.0326,0.45049 0.0619,1.26962 0.11283,1.86389 0.0461,0.73745 0.14219,1.69478 0.19741,2.2921 0.16943,1.56989 0.40044,3.21527 0.6617,4.66019 0.96477,5.57305 2.65537,11.01478 4.96946,16.17406 0.20782,0.43486 0.55012,1.20756 0.83026,1.76443 6.55956,13.64531 17.82981,24.95039 31.45488,31.55173 10.91417,5.35954 23.28215,7.68234 35.39846,6.70532 0.43256,-0.0477 1.22183,-0.10443 1.79983,-0.17564 12.83105,-1.35234 25.22715,-6.45774 35.29877,-14.5205 2.24345,-1.78888 4.36561,-3.72785 6.36819,-5.78237 0.39857,-0.41312 1.0302,-1.06961 1.49814,-1.59494 1.22723,-1.34729 2.5685,-2.93941 3.74663,-4.48498 6.85414,-8.91375 11.40334,-19.56515 13.17906,-30.66422 0.0877,-0.60973 0.23824,-1.54376 0.322,-2.2813 1.51223,-11.76527 -0.13808,-23.911 -4.74605,-34.84227 -3.9088,-9.34573 -9.91115,-17.81992 -17.4861,-24.55222 -0.56914,-0.51012 -1.37366,-1.19453 -2.05144,-1.75145 -4.43682,-3.67037 -9.3515,-6.7573 -14.56771,-9.19386 -0.76194,-0.34842 -1.77476,-0.80682 -2.65107,-1.16414 -2.14638,-0.9 -4.52202,-1.73807 -6.63799,-2.37101 -4.61719,-1.39004 -9.54637,-2.2967 -14.25,-2.64844 -1.97651,-0.15346 -4.07547,-0.22348 -6.13086,-0.20117 z" />
      </g>
      <g
         id="g2"
         transform="translate(-14.344231,18.949062)">
        <rect
           style="fill:#afafe9"
           id="rect1-0"
           width="678.53247"
           height="45.2355"
           x="174.9481"
           y="471.86774"
           rx="18.897638" />
        <path
           id="path1-6"
           style="fill:#1c1c24;stroke-width:0.755782"
           d="m 754.79173,426.26435 c -2.62614,0.041 -5.1294,0.21808 -7.75597,0.55403 -0.85727,0.10791 -1.86683,0.26256 -2.69325,0.39909 -1.29636,0.225 -2.38791,0.43198 -3.70848,0.73099 -13.79183,3.06908 -26.54264,10.576 -35.91843,21.14605 -9.79151,10.91917 -15.87479,25.08288 -17.05842,39.70122 -0.24456,2.88752 -0.2967,5.79012 -0.18185,8.68541 0.0326,0.45049 0.0619,1.26962 0.11283,1.86389 0.0461,0.73745 0.14219,1.69478 0.19741,2.2921 0.16943,1.56989 0.40044,3.21527 0.6617,4.66019 0.96477,5.57305 2.65537,11.01478 4.96946,16.17406 0.20782,0.43486 0.55012,1.20756 0.83026,1.76443 6.55956,13.64531 17.82981,24.95039 31.45488,31.55173 10.91417,5.35954 23.28215,7.68234 35.39846,6.70532 0.43256,-0.0477 1.22183,-0.10443 1.79983,-0.17564 12.83105,-1.35234 25.22715,-6.45774 35.29877,-14.5205 2.24345,-1.78888 4.36561,-3.72785 6.36819,-5.78237 0.39857,-0.41312 1.0302,-1.06961 1.49814,-1.59494 1.22723,-1.34729 2.5685,-2.93941 3.74663,-4.48498 6.85414,-8.91375 11.40334,-19.56515 13.17906,-30.66422 0.0877,-0.60973 0.23824,-1.54376 0.322,-2.2813 1.51223,-11.76527 -0.13808,-23.911 -4.74605,-34.84227 -3.9088,-9.34573 -9.91115,-17.81992 -17.4861,-24.55222 -0.56914,-0.51012 -1.37366,-1.19453 -2.05144,-1.75145 -4.43682,-3.67037 -9.3515,-6.7573 -14.56771,-9.19386 -0.76194,-0.34842 -1.77476,-0.80682 -2.65107,-1.16414 -2.14638,-0.9 -4.52202,-1.73807 -6.63799,-2.37101 -4.61719,-1.39004 -9.54637,-2.2967 -14.25,-2.64844 -1.97651,-0.15346 -4.07547,-0.22348 -6.13086,-0.20117 z" />
      </g>
      <g
         id="g1"
         transform="translate(-21.158944,6.1288267)">
        <rect
           style="fill:#afafe9"
           id="rect1-8"
           width="678.53247"
           height="45.2355"
           x="181.76282"
           y="679.7287"
           rx="18.897638" />
        <path
           id="path1-7"
           style="fill:#1c1c24;stroke-width:0.755782"
           d="m 505.07584,634.12531 c -2.62614,0.041 -5.1294,0.21808 -7.75597,0.55403 -0.85727,0.10791 -1.86683,0.26256 -2.69325,0.39909 -1.29636,0.225 -2.38791,0.43198 -3.70848,0.73099 -13.79183,3.06908 -26.54264,10.576 -35.91843,21.14605 -9.79151,10.91917 -15.87479,25.08288 -17.05842,39.70122 -0.24456,2.88752 -0.2967,5.79012 -0.18185,8.68541 0.0326,0.45049 0.0619,1.26962 0.11283,1.86389 0.0461,0.73745 0.14219,1.69478 0.19741,2.2921 0.16943,1.56989 0.40044,3.21527 0.6617,4.66019 0.96477,5.57305 2.65537,11.01478 4.96946,16.17406 0.20782,0.43486 0.55012,1.20756 0.83026,1.76443 6.55956,13.64531 17.82981,24.95039 31.45488,31.55173 10.91417,5.35954 23.28215,7.68234 35.39846,6.70532 0.43256,-0.0477 1.22183,-0.10443 1.79983,-0.17564 12.83105,-1.35234 25.22715,-6.45774 35.29877,-14.5205 2.24345,-1.78888 4.36561,-3.72785 6.36819,-5.78237 0.39857,-0.41312 1.0302,-1.06961 1.49814,-1.59494 1.22723,-1.34729 2.5685,-2.93941 3.74663,-4.48498 6.85414,-8.91375 11.40334,-19.56515 13.17906,-30.66422 0.0877,-0.60973 0.23824,-1.54376 0.322,-2.2813 1.51223,-11.76527 -0.13808,-23.911 -4.74605,-34.84227 -3.9088,-9.34573 -9.91115,-17.81992 -17.4861,-24.55222 -0.56914,-0.51012 -1.37366,-1.19453 -2.05144,-1.75145 -4.43682,-3.67037 -9.3515,-6.7573 -14.56771,-9.19386 -0.76194,-0.34842 -1.77476,-0.80682 -2.65107,-1.16414 -2.14638,-0.9 -4.52202,-1.73807 -6.63799,-2.37101 -4.61719,-1.39004 -9.54637,-2.2967 -14.25,-2.64844 -1.97651,-0.15346 -4.07547,-0.22348 -6.13086,-0.20117 z" />
      </g>
    </g>
  </g>
</svg>
